Normalized EMG Linear Envelopes
nRows=110
nColumns=4

endheader
time	 med_gas_r	  soleus_r	 tib_ant_r	
3.75	  0.007464	  0.006270	  0.001657	
3.8125	  0.007356	  0.006071	  0.001633	
3.875	  0.007343	  0.005917	  0.001597	
3.9375	  0.007350	  0.005798	  0.001567	
4	  0.007250	  0.005640	  0.001570	
4.0625	  0.007062	  0.005394	  0.001606	
4.125	  0.006962	  0.005107	  0.001645	
4.1875	  0.007165	  0.004878	  0.001660	
4.25	  0.007687	  0.004798	  0.001649	
4.3125	  0.008148	  0.004900	  0.001630	
4.375	  0.008067	  0.005129	  0.001622	
4.4375	  0.007430	  0.005393	  0.001630	
4.5	  0.006724	  0.005676	  0.001658	
4.5625	  0.006429	  0.006024	  0.001693	
4.625	  0.006641	  0.006349	  0.001665	
4.6875	  0.007058	  0.006201	  0.001441	
4.75	  0.007125	  0.004712	  0.000898	
4.8125	  0.006344	  0.000900	  0.000062	
4.875	  0.004711	 -0.005440	 -0.000662	
4.9375	  0.003148	 -0.011905	 -0.000243	
5	  0.003898	 -0.011022	  0.003087	
5.0625	  0.010547	  0.010933	  0.011283	
5.125	  0.026791	  0.070538	  0.024671	
5.1875	  0.053799	  0.175060	  0.040281	
5.25	  0.088546	  0.306541	  0.053323	
5.3125	  0.126394	  0.425696	  0.060910	
5.375	  0.165578	  0.502236	  0.063424	
5.4375	  0.207309	  0.536100	  0.062774	
5.5	  0.251170	  0.549665	  0.060813	
5.5625	  0.290966	  0.567408	  0.058871	
5.625	  0.315384	  0.590959	  0.057197	
5.6875	  0.314632	  0.588440	  0.054837	
5.75	  0.288142	  0.528452	  0.050984	
5.8125	  0.246707	  0.425694	  0.046092	
5.875	  0.207855	  0.332255	  0.041241	
5.9375	  0.186071	  0.287473	  0.037288	
6	  0.184364	  0.294994	  0.034843	
6.0625	  0.195926	  0.337604	  0.034231	
6.125	  0.210807	  0.389303	  0.035128	
6.1875	  0.219010	  0.420889	  0.036499	
6.25	  0.214545	  0.417196	  0.037341	
6.3125	  0.200473	  0.388073	  0.037488	
6.375	  0.184751	  0.352039	  0.037158	
6.4375	  0.169864	  0.313562	  0.035992	
6.5	  0.151050	  0.266477	  0.033328	
6.5625	  0.124351	  0.214063	  0.029327	
6.625	  0.092626	  0.169510	  0.025213	
6.6875	  0.064116	  0.139975	  0.022181	
6.75	  0.046641	  0.124116	  0.020416	
6.8125	  0.042421	  0.119506	  0.019462	
6.875	  0.047642	  0.123722	  0.019035	
6.9375	  0.056315	  0.133815	  0.019216	
7	  0.064208	  0.147526	  0.020193	
7.0625	  0.070117	  0.162081	  0.021769	
7.125	  0.074899	  0.173437	  0.023216	
7.1875	  0.079931	  0.178749	  0.023971	
7.25	  0.085798	  0.178636	  0.024191	
7.3125	  0.091145	  0.176322	  0.024347	
7.375	  0.093128	  0.174223	  0.024648	
7.4375	  0.090547	  0.171672	  0.024951	
7.5	  0.085443	  0.165963	  0.024922	
7.5625	  0.080305	  0.155353	  0.024263	
7.625	  0.075585	  0.142109	  0.023036	
7.6875	  0.071050	  0.132468	  0.021742	
7.75	  0.067740	  0.132627	  0.020856	
7.8125	  0.067047	  0.142755	  0.020293	
7.875	  0.068728	  0.154016	  0.019627	
7.9375	  0.070921	  0.157299	  0.018896	
8	  0.072467	  0.156242	  0.018872	
8.0625	  0.076308	  0.163920	  0.020459	
8.125	  0.089047	  0.187834	  0.024046	
8.1875	  0.114370	  0.224688	  0.029291	
8.25	  0.148365	  0.266335	  0.035192	
8.3125	  0.183580	  0.307020	  0.040736	
8.375	  0.216141	  0.345520	  0.045881	
8.4375	  0.245967	  0.379407	  0.051405	
8.5	  0.271342	  0.400991	  0.057329	
8.5625	  0.288464	  0.404220	  0.061912	
8.625	  0.296972	  0.393159	  0.062912	
8.6875	  0.300796	  0.379151	  0.059929	
8.75	  0.302141	  0.368346	  0.054851	
8.8125	  0.298963	  0.355569	  0.049927	
8.875	  0.289996	  0.334650	  0.046221	
8.9375	  0.278327	  0.309536	  0.043711	
9	  0.268281	  0.289465	  0.041956	
9.0625	  0.262490	  0.279857	  0.040778	
9.125	  0.263655	  0.281854	  0.040463	
9.1875	  0.275111	  0.293453	  0.041277	
9.25	  0.297038	  0.311828	  0.043465	
9.3125	  0.325168	  0.340748	  0.047638	
9.375	  0.354064	  0.386924	  0.053924	
9.4375	  0.376929	  0.440669	  0.060582	
9.5	  0.383503	  0.471538	  0.064321	
9.5625	  0.364501	  0.453683	  0.062228	
9.625	  0.318547	  0.391249	  0.053668	
9.6875	  0.254306	  0.314102	  0.041062	
9.75	  0.186306	  0.252303	  0.028563	
9.8125	  0.126850	  0.218913	  0.019117	
9.875	  0.081644	  0.211673	  0.013034	
9.9375	  0.051319	  0.220259	  0.009310	
10	  0.033266	  0.230907	  0.007146	
10.0625	  0.023078	  0.232019	  0.006050	
10.125	  0.017123	  0.220522	  0.005559	
10.1875	  0.013787	  0.203806	  0.005270	
10.25	  0.012451	  0.193427	  0.005018	
10.3125	  0.012473	  0.192687	  0.005042	
10.375	  0.013036	  0.191863	  0.005846	
10.4375	  0.013315	  0.179010	  0.007688	
10.5	  0.012817	  0.151326	  0.010323	
10.5625	  0.011662	  0.114508	  0.013298	
